<svg width="16" height="16" viewBox="0 0 16 16" fill="none" xmlns="http://www.w3.org/2000/svg">
<path fill-rule="evenodd" clip-rule="evenodd" d="M11.3332 8.00004C11.3332 9.84099 9.84082 11.3334 7.99987 11.3334C6.15892 11.3334 4.66654 9.84099 4.66654 8.00004C4.66654 6.15909 6.15892 4.66671 7.99987 4.66671C9.84082 4.66671 11.3332 6.15909 11.3332 8.00004ZM10.2499 8.00004C10.2499 9.24268 9.24251 10.25 7.99987 10.25C6.75723 10.25 5.74987 9.24268 5.74987 8.00004C5.74987 6.7574 6.75723 5.75004 7.99987 5.75004C9.24251 5.75004 10.2499 6.7574 10.2499 8.00004Z" fill="#505050"/>
<path fill-rule="evenodd" clip-rule="evenodd" d="M7.15242 0.50415C6.41432 0.50415 5.78927 1.04844 5.68779 1.77953C5.56195 2.6862 4.61635 3.23214 3.76823 2.88779C3.08435 2.61012 2.30045 2.87929 1.9314 3.5185L1.13412 4.89944C0.769552 5.53089 0.919701 6.33384 1.48781 6.79088C2.22248 7.38192 2.21039 8.52174 1.45614 9.10895C0.873742 9.56237 0.714899 10.3758 1.08395 11.015L1.88123 12.396C2.2458 13.0274 3.01625 13.2989 3.69612 13.0354C4.5753 12.6947 5.55637 13.2751 5.68779 14.2219C5.78926 14.9529 6.41432 15.4972 7.15242 15.4972H8.74698C9.47612 15.4972 10.0964 14.9657 10.2082 14.2452C10.3602 13.2654 11.3791 12.6771 12.3036 13.0354C12.9835 13.2989 13.7539 13.0274 14.1185 12.396L14.9158 11.015C15.2848 10.3758 15.126 9.56237 14.5436 9.10895C13.7894 8.52174 13.7773 7.38192 14.5119 6.79088C15.08 6.33384 15.2302 5.53089 14.8656 4.89944L14.0683 3.5185C13.6993 2.87929 12.9154 2.61012 12.2315 2.88779C11.3459 3.24738 10.3527 2.68794 10.2082 1.75618C10.0964 1.03566 9.47612 0.50415 8.74698 0.50415H7.15242ZM6.76084 1.92847C6.78797 1.73301 6.95508 1.58748 7.15242 1.58748L8.74698 1.58748C8.94192 1.58748 9.10776 1.72959 9.13764 1.92223C9.39127 3.55743 11.1179 4.50916 12.6391 3.89154C12.8219 3.81731 13.0315 3.88927 13.1301 4.06017L13.9274 5.4411C14.0249 5.60993 13.9848 5.8246 13.8329 5.9468C12.5436 6.98405 12.5826 8.9552 13.8781 9.96377C14.0338 10.085 14.0763 10.3025 13.9776 10.4734L13.1803 11.8543C13.0829 12.0231 12.8769 12.0957 12.6951 12.0253C11.1255 11.417 9.39565 12.4157 9.13764 14.0792C9.10776 14.2718 8.94192 14.4139 8.74698 14.4139H7.15242C6.95508 14.4139 6.78797 14.2684 6.76084 14.0729C6.53512 12.4467 4.84759 11.4273 3.30465 12.0253C3.12288 12.0957 2.91689 12.0231 2.81942 11.8543L2.02214 10.4734C1.92347 10.3025 1.96594 10.085 2.12165 9.96377C3.41711 8.9552 3.45619 6.98405 2.16688 5.9468C2.01499 5.8246 1.97485 5.60993 2.07232 5.4411L2.8696 4.06017C2.96827 3.88927 3.17785 3.81731 3.36069 3.89154C4.86297 4.50149 6.53793 3.53446 6.76084 1.92847Z" fill="#505050"/>
</svg>
